<?xml version="1.0" encoding="UTF-8"?>
<svg width="72px" height="72px" viewBox="0 0 72 72" version="1.1" xmlns="http://www.w3.org/2000/svg" xmlns:xlink="http://www.w3.org/1999/xlink">
    <!-- Generator: Sketch 52.6 (67491) - http://www.bohemiancoding.com/sketch -->
    <title>Group 23@2x</title>
    <desc>Created with Sketch.</desc>
    <g id="v1" stroke="none" stroke-width="1" fill="none" fill-rule="evenodd">
        <g id="home" transform="translate(-69.000000, -3722.000000)">
            <g id="Group-23" transform="translate(70.000000, 3723.000000)">
                <circle id="Oval" stroke="#FFFFFF" opacity="0.600000024" cx="35" cy="35" r="35"></circle>
                <path d="M39.5115697,23.0046815 L36.3930582,23 C32.8899312,23 30.6253909,25.3186039 30.6253909,28.9065255 L30.6253909,31.6302375 L27.4896811,31.6302375 C27.2198249,31.6302375 27,31.8483966 27,32.1189888 L27,36.0655154 C27,36.3348592 27.2198249,36.5542667 27.4896811,36.5542667 L30.6253909,36.5542667 L30.6253909,46.5112487 C30.6253909,46.7805925 30.8452158,47 31.1163227,47 L35.2057536,47 C35.4768605,47 35.6966854,46.7805925 35.6966854,46.5112487 L35.6966854,36.5542667 L39.362414,36.5542667 C39.633521,36.5542667 39.8524078,36.3348592 39.8524078,36.0655154 L39.8545966,32.1189888 C39.8545966,31.9897787 39.8020638,31.8655622 39.710444,31.772868 C39.6188243,31.6814221 39.4943715,31.6302375 39.3636648,31.6302375 L35.6966854,31.6302375 L35.6966854,29.3213087 C35.6966854,28.211787 35.9618512,27.6484434 37.4093183,27.6484434 L39.5103189,27.647195 C39.7814259,27.647195 40,27.4277875 40,27.1584437 L40,23.4949934 C40,23.2240891 39.7814259,23.0059299 39.5115697,23.0046815 Z" id="Fill-1" fill="#FFFFFF"></path>
            </g>
        </g>
    </g>
</svg>