<?xml version="1.0" encoding="UTF-8"?>
<svg width="170px" height="35px" viewBox="0 0 170 35" version="1.1" xmlns="http://www.w3.org/2000/svg" xmlns:xlink="http://www.w3.org/1999/xlink">
    <!-- Generator: Sketch 52.6 (67491) - http://www.bohemiancoding.com/sketch -->
    <title>Group 12@2x</title>
    <desc>Created with Sketch.</desc>
    <g id="v1" stroke="none" stroke-width="1" fill="none" fill-rule="evenodd">
        <g id="home" transform="translate(-71.000000, -57.000000)" fill="#DCF8ED">
            <g id="Group-12" transform="translate(71.000000, 57.000000)">
                <path d="M6.53512934,23.493759 C6.74053942,24.9539569 7.14427648,26.044833 7.74634051,26.766862 C8.84658301,28.0822744 10.7325781,28.7397432 13.4043258,28.7397432 C15.0036912,28.7397432 16.3027329,28.5664753 17.3005064,28.2189899 C19.1940568,27.5544005 20.1403598,26.3196882 20.1403598,24.5124797 C20.1403598,23.4576813 19.6766525,22.6416604 18.7501822,22.0634676 C17.8213509,21.4995159 16.350898,21.0010739 14.3369348,20.5681413 L10.896434,19.8086105 C7.51448683,19.0580992 5.19122798,18.2416036 3.9261852,17.3595984 C1.78472607,15.885634 0.713760408,13.580458 0.713760408,10.44502 C0.713760408,7.58396243 1.76111572,5.20710576 3.85677076,3.31397526 C5.9524258,1.42084476 9.03027157,0.474279509 13.0898359,0.474279509 C16.4802827,0.474279509 19.3716067,1.36672819 21.7656966,3.15067614 C24.1593143,4.9355735 25.4144408,7.52652291 25.5306037,10.9221003 L19.1482528,10.9221003 C19.0311454,9.00048735 18.1764506,7.63428134 16.5846405,6.82538105 C15.5235912,6.29086125 14.205189,6.02265194 12.6284895,6.02265194 C10.8742402,6.02265194 9.47414623,6.37061199 8.42773533,7.06368383 C7.38132443,7.75723039 6.85859119,8.72563215 6.85859119,9.96841441 C6.85859119,11.1100841 7.37424133,11.9621827 8.4055416,12.5261343 C9.06899255,12.9016274 10.4766419,13.3426299 12.6284895,13.8481926 L18.2052552,15.1707256 C20.6503435,15.7489184 22.482507,16.521741 23.7026901,17.4891934 C25.5967127,18.9930643 26.5439601,21.1676959 26.5439601,24.0140376 C26.5439601,26.9334841 25.4219961,29.3573367 23.1766514,31.2865449 C20.9322511,33.2157531 17.7613806,34.1803572 13.6640397,34.1803572 C9.48028492,34.1803572 6.18947375,33.2299943 3.79207839,31.3297432 C1.39468302,29.4299668 0.196221444,26.8176556 0.196221444,23.493759 L6.53512934,23.493759 Z" id="Fill-1"></path>
                <path d="M26.0827554,14.3466822 L26.0827554,9.94710007 L29.3598726,9.94710007 L29.3598726,3.35769575 L35.4409554,3.35769575 L35.4409554,9.94710007 L39.2568609,9.94710007 L39.2568609,14.3466822 L35.4409554,14.3466822 L35.4409554,26.8319443 C35.4409554,27.800346 35.5623127,28.4032236 35.8069159,28.6415264 C36.0515192,28.8807786 36.799023,28.9994553 38.0494274,28.9994553 C38.2364214,28.9994553 38.4333317,28.9961323 38.6425195,28.9890117 C38.8507628,28.9814164 39.0552285,28.9714476 39.2568609,28.9557823 L39.2568609,33.5732548 L36.3461764,33.6819626 C33.4421029,33.7826004 31.4583609,33.2770378 30.3949505,32.1643251 C29.705056,31.4565374 29.3598726,30.3647119 29.3598726,28.8907474 L29.3598726,14.3466822 L26.0827554,14.3466822 Z" id="Fill-4"></path>
                <path d="M55.6781928,27.0514487 C56.6405508,25.7678416 57.122202,23.9421195 57.122202,21.5757064 C57.122202,19.2092933 56.6405508,17.3878435 55.6781928,16.1108823 C54.7148903,14.8334465 53.334629,14.1944912 51.5378811,14.1944912 C49.7411331,14.1944912 48.3580386,14.8334465 47.3871808,16.1108823 C46.4172674,17.3878435 45.9318386,19.2092933 45.9318386,21.5757064 C45.9318386,23.9421195 46.4172674,25.7678416 47.3871808,27.0514487 C48.3580386,28.3360051 49.7411331,28.9782834 51.5378811,28.9782834 C53.334629,28.9782834 54.7148903,28.3360051 55.6781928,27.0514487 M60.5943407,30.4655396 C58.6105988,32.9278435 55.5983898,34.1582834 51.5600748,34.1582834 C47.5203432,34.1582834 44.5090786,32.9278435 42.5253367,30.4655396 C40.5420669,28.0046598 39.5499598,25.0410656 39.5499598,21.5757064 C39.5499598,18.1682614 40.5420669,15.2160601 42.5253367,12.7181532 C44.5090786,10.2202463 47.5203432,8.97081818 51.5600748,8.97081818 C55.5983898,8.97081818 58.6105988,10.2202463 60.5943407,12.7181532 C62.5776105,15.2160601 63.5692454,18.1682614 63.5692454,21.5757064 C63.5692454,25.0410656 62.5776105,28.0046598 60.5943407,30.4655396" id="Fill-6"></path>
                <path d="M78.8149705,9.1775055 C78.8938291,9.18415139 79.0704345,9.19554435 79.3433702,9.20978556 L79.3433702,15.5390506 C78.955216,15.4953776 78.6100326,15.4668952 78.3087645,15.452654 C78.0070242,15.437938 77.7624209,15.4303427 77.5754269,15.4303427 C75.1024784,15.4303427 73.4426705,16.2401924 72.5950588,17.8584677 C72.1200184,18.7684806 71.8829705,20.1698149 71.8829705,22.0634201 L71.8829705,33.3566935 L65.6956411,33.3566935 L65.6956411,9.73006415 L71.5595086,9.73006415 L71.5595086,13.8481452 C72.5081727,12.2730682 73.3350073,11.1964333 74.039068,10.6182405 C75.1893645,9.65078812 76.6843721,9.16658724 78.5245631,9.16658724 C78.6393094,9.16658724 78.7361119,9.16991019 78.8149705,9.1775055" id="Fill-8"></path>
                <path d="M86.8579321,15.544842 C85.9895433,16.444886 85.4441441,17.6634582 85.2207901,19.2024575 L95.8081452,19.2024575 C95.6962321,17.561871 95.1508329,16.3176646 94.170531,15.4688889 C93.1907013,14.6201133 91.9761847,14.194776 90.5260367,14.194776 C88.9483928,14.194776 87.7263209,14.6457474 86.8579321,15.544842 M96.0513318,10.2081888 C97.6908348,10.9468325 99.0446525,12.1117628 100.112313,13.7034545 C101.075143,15.1076371 101.699401,16.7354065 101.984614,18.5886617 C102.150358,19.6738413 102.217412,21.2365759 102.187191,23.2768655 L85.0696839,23.2768655 C85.1655419,25.647551 85.9848212,27.3085499 87.5279939,28.2622357 C88.4657972,28.8551444 89.5957888,29.1513614 90.9160798,29.1513614 C92.3157016,29.1513614 93.4532484,28.7901096 94.3282482,28.0676059 C94.8047051,27.677397 95.2273304,27.1352819 95.5923465,26.4417353 L101.866562,26.4417353 C101.70129,27.8440191 100.941508,29.2676646 99.5886351,30.7117225 C97.4835359,33.0097779 94.5355471,34.1585682 90.7470296,34.1585682 C87.6191299,34.1585682 84.8590795,33.189217 82.4687672,31.2514641 C80.0775106,29.3137111 78.8818822,26.1607089 78.8818822,21.7924575 C78.8818822,17.6995359 79.9608754,14.5612496 82.119334,12.3775986 C84.2777926,10.1939476 87.0798694,9.10164736 90.5236757,9.10164736 C92.5692768,9.10164736 94.4118288,9.4704945 96.0513318,10.2081888" id="Fill-10"></path>
                <polygon id="Fill-12" points="103.216697 33.3566935 109.362 33.3566935 109.362 1.40655609 103.216697 1.40655609"></polygon>
                <path d="M113.233625,33.3566935 L119.465342,33.3566935 L119.465342,9.73006415 L113.233625,9.73006415 L113.233625,33.3566935 Z M113.234098,6.91173021 L119.465814,6.91173021 L119.465814,1.21145161 L113.234098,1.21145161 L113.234098,6.91173021 Z" id="Fill-14"></path>
                <path d="M142.158954,11.08445 C143.697404,12.3637846 144.467102,14.4842997 144.467102,17.4464698 L144.467102,33.3562663 L138.171637,33.3562663 L138.171637,18.985469 C138.171637,17.7431615 138.006837,16.7890009 137.678653,16.1239368 C137.07895,14.9101116 135.938098,14.3029617 134.254207,14.3029617 C132.184996,14.3029617 130.765541,15.1920874 129.994899,16.9693895 C129.59494,17.9088341 129.395196,19.1084181 129.395196,20.5681413 L129.395196,33.3562663 L123.250838,33.3562663 L123.250838,9.77378464 L129.201591,9.77378464 L129.201591,13.2192062 C129.988288,12.0058558 130.733431,11.1314459 131.434186,10.5969261 C132.694035,9.64276558 134.290095,9.16616001 136.222838,9.16616001 C138.641011,9.16616001 140.619559,9.8060647 142.158954,11.08445" id="Fill-15"></path>
                <polygon id="Fill-16" points="147.908311 1.51464681 153.945006 1.51464681 153.945006 18.750774 161.695341 9.83862958 169.337541 9.83862958 160.913366 18.6396926 169.663836 33.3565511 162.18502 33.3565511 156.490675 23.2623869 153.945006 25.9216941 153.945006 33.3565511 147.908311 33.3565511"></polygon>
            </g>
        </g>
    </g>
</svg>